<svg width="77" height="78" xmlns="http://www.w3.org/2000/svg" xmlns:xlink="http://www.w3.org/1999/xlink" overflow="hidden"><defs><filter id="fx0" x="-10%" y="-10%" width="120%" height="120%" filterUnits="userSpaceOnUse" primitiveUnits="userSpaceOnUse"><feComponentTransfer color-interpolation-filters="sRGB"><feFuncR type="discrete" tableValues="0 0"/><feFuncG type="discrete" tableValues="0 0"/><feFuncB type="discrete" tableValues="0 0"/><feFuncA type="linear" slope="0.4" intercept="0"/></feComponentTransfer><feGaussianBlur stdDeviation="1.77778 1.77778"/></filter><filter id="fx1" x="-10%" y="-10%" width="120%" height="120%" filterUnits="userSpaceOnUse" primitiveUnits="userSpaceOnUse"><feComponentTransfer color-interpolation-filters="sRGB"><feFuncR type="discrete" tableValues="0 0"/><feFuncG type="discrete" tableValues="0 0"/><feFuncB type="discrete" tableValues="0 0"/><feFuncA type="linear" slope="0.4" intercept="0"/></feComponentTransfer><feGaussianBlur stdDeviation="1.77778 1.77778"/></filter><filter id="fx2" x="-10%" y="-10%" width="120%" height="120%" filterUnits="userSpaceOnUse" primitiveUnits="userSpaceOnUse"><feComponentTransfer color-interpolation-filters="sRGB"><feFuncR type="discrete" tableValues="0 0"/><feFuncG type="discrete" tableValues="0 0"/><feFuncB type="discrete" tableValues="0 0"/><feFuncA type="linear" slope="0.4" intercept="0"/></feComponentTransfer><feGaussianBlur stdDeviation="1.77778 1.77778"/></filter><filter id="fx3" x="-10%" y="-10%" width="120%" height="120%" filterUnits="userSpaceOnUse" primitiveUnits="userSpaceOnUse"><feComponentTransfer color-interpolation-filters="sRGB"><feFuncR type="discrete" tableValues="0 0"/><feFuncG type="discrete" tableValues="0 0"/><feFuncB type="discrete" tableValues="0 0"/><feFuncA type="linear" slope="0.4" intercept="0"/></feComponentTransfer><feGaussianBlur stdDeviation="1.77778 1.77778"/></filter><clipPath id="clip4"><rect x="299" y="233" width="77" height="78"/></clipPath></defs><g clip-path="url(#clip4)" transform="translate(-299 -233)"><g filter="url(#fx0)" transform="translate(323 241)"><g><path d="M28.5358 33.8448C25.662 33.8984 23.4514 34.6658 21.904 36.1469 20.3567 37.6282 19.5913 39.502 19.6081 41.7683 19.5608 43.8071 20.2407 45.5827 21.6479 47.0952 23.0551 48.6076 25.2534 49.4016 28.2432 49.4775 30.873 49.4642 32.9495 48.7771 34.4725 47.4164 35.9956 46.0556 36.7731 44.1016 36.8051 41.5542 36.7852 39.1406 36.0565 37.2579 34.6189 35.9061 33.1812 34.5543 31.1535 33.8672 28.5358 33.8448ZM30.1457 7.67163C32.9143 7.6864 35.7181 8.04873 38.5572 8.75839 41.3964 9.46816 43.9061 10.4362 46.0862 11.6627L41.7745 19.7225C40.252 18.6826 38.5461 17.888 36.6568 17.3391 34.7676 16.7902 32.8412 16.5134 30.8776 16.509 26.5235 16.5643 23.2854 17.9176 21.1633 20.569 19.0411 23.2204 18.0348 26.838 18.1444 31.4219 19.4281 29.5199 21.1417 28.0501 23.2853 27.0123 25.4288 25.9745 27.984 25.4489 30.9508 25.4356 36.0168 25.4991 39.9989 26.9755 42.8971 29.8645 45.7952 32.7536 47.2724 36.6739 47.3285 41.6256 47.2542 46.9248 45.5576 51.0769 42.239 54.082 38.9203 57.0871 34.4259 58.6169 28.7554 58.6716 22.0373 58.6053 16.8018 56.4215 13.0489 52.1205 9.29582 47.8194 7.38907 41.799 7.32849 34.0591 7.41029 25.9688 9.47553 19.5735 13.5241 14.8732 17.5727 10.1729 23.1132 7.77233 30.1457 7.67163Z" stroke="#4E598C" stroke-linejoin="round" stroke-miterlimit="10" fill="#4E598C" fill-rule="evenodd" fill-opacity="0.701961"/></g></g><path d="M348.707 277.673C345.834 277.727 343.623 278.494 342.076 279.975 340.528 281.457 339.763 283.33 339.78 285.597 339.732 287.636 340.412 289.411 341.819 290.924 343.227 292.436 345.425 293.23 348.415 293.306 351.045 293.293 353.121 292.605 354.644 291.245 356.167 289.884 356.945 287.93 356.977 285.383 356.957 282.969 356.228 281.086 354.79 279.735 353.353 278.383 351.325 277.696 348.707 277.673ZM350.317 251.5C353.086 251.515 355.89 251.877 358.729 252.587 361.568 253.297 364.078 254.265 366.258 255.491L361.946 263.551C360.424 262.511 358.718 261.716 356.828 261.168 354.939 260.619 353.013 260.342 351.049 260.337 346.695 260.393 343.457 261.746 341.335 264.397 339.213 267.049 338.206 270.666 338.316 275.25 339.6 273.348 341.313 271.878 343.457 270.841 345.6 269.803 348.156 269.277 351.122 269.264 356.188 269.328 360.171 270.804 363.069 273.693 365.967 276.582 367.444 280.502 367.5 285.454 367.426 290.753 365.729 294.905 362.411 297.91 359.092 300.916 354.597 302.445 348.927 302.5 342.209 302.434 336.973 300.25 333.22 295.949 329.467 291.648 327.561 285.627 327.5 277.888 327.582 269.797 329.647 263.402 333.696 258.702 337.744 254.001 343.285 251.601 350.317 251.5Z" stroke="#4E598C" stroke-width="1.33333" stroke-linejoin="round" stroke-miterlimit="10" fill="#4E598C" fill-rule="evenodd" fill-opacity="0.701961"/><g filter="url(#fx1)" transform="translate(312 237)"><g><path d="M28.0056 33.8448C25.2037 33.8984 23.0483 34.6658 21.5396 36.1469 20.0309 37.6282 19.2847 39.502 19.3011 41.7683 19.255 43.8071 19.9179 45.5827 21.2899 47.0952 22.6619 48.6076 24.8053 49.4016 27.7203 49.4775 30.2844 49.4642 32.3089 48.7771 33.7939 47.4164 35.2789 46.0556 36.037 44.1016 36.0682 41.5542 36.0488 39.1406 35.3383 37.2579 33.9366 35.9061 32.5349 34.5543 30.5579 33.8672 28.0056 33.8448ZM29.5753 7.67163C32.2746 7.6864 35.0083 8.04873 37.7765 8.75839 40.5447 9.46816 42.9916 10.4362 45.1172 11.6627L40.9134 19.7225C39.4289 18.6826 37.7657 17.888 35.9236 17.3391 34.0816 16.7902 32.2034 16.5134 30.2889 16.509 26.0436 16.5643 22.8864 17.9176 20.8174 20.569 18.7483 23.2204 17.7671 26.838 17.874 31.4219 19.1256 29.5199 20.7964 28.0501 22.8863 27.0123 24.9763 25.9745 27.4676 25.4489 30.3602 25.4356 35.2996 25.4991 39.1822 26.9755 42.0079 29.8645 44.8336 32.7536 46.2738 36.6739 46.3285 41.6256 46.256 46.9248 44.6019 51.0769 41.3662 54.082 38.1306 57.0871 33.7484 58.6169 28.2197 58.6716 21.6696 58.6053 16.5649 56.4215 12.9058 52.1205 9.24664 47.8194 7.38756 41.799 7.32849 34.0591 7.40825 25.9688 9.42186 19.5735 13.3692 14.8732 17.3166 10.1729 22.7186 7.77233 29.5753 7.67163Z" stroke="#8E6289" stroke-linejoin="round" stroke-miterlimit="10" fill="#8E6289" fill-rule="evenodd" fill-opacity="0.701961"/></g></g><path d="M337.177 273.673C334.375 273.727 332.22 274.494 330.711 275.975 329.203 277.457 328.456 279.33 328.473 281.597 328.427 283.636 329.089 285.411 330.461 286.924 331.833 288.436 333.977 289.23 336.892 289.306 339.456 289.293 341.48 288.605 342.965 287.245 344.45 285.884 345.209 283.93 345.24 281.383 345.22 278.969 344.51 277.086 343.108 275.735 341.706 274.383 339.729 273.696 337.177 273.673ZM338.747 247.5C341.446 247.515 344.18 247.877 346.948 248.587 349.716 249.297 352.163 250.265 354.289 251.491L350.085 259.551C348.6 258.511 346.937 257.716 345.095 257.168 343.253 256.619 341.375 256.342 339.46 256.337 335.215 256.393 332.058 257.746 329.989 260.397 327.92 263.049 326.939 266.666 327.046 271.25 328.297 269.348 329.968 267.878 332.058 266.841 334.148 265.803 336.639 265.277 339.532 265.264 344.471 265.328 348.354 266.804 351.18 269.693 354.005 272.582 355.445 276.502 355.5 281.454 355.428 286.753 353.773 290.905 350.538 293.91 347.302 296.916 342.92 298.445 337.391 298.5 330.841 298.434 325.737 296.25 322.077 291.949 318.418 287.648 316.559 281.627 316.5 273.888 316.58 265.797 318.593 259.402 322.541 254.702 326.488 250.001 331.89 247.601 338.747 247.5Z" stroke="#8E6289" stroke-width="1.33333" stroke-linejoin="round" stroke-miterlimit="10" fill="#8E6289" fill-rule="evenodd" fill-opacity="0.701961"/><g filter="url(#fx2)" transform="translate(300 258)"><g><path d="M22.7126 7.67163C26.187 7.70945 29.0215 8.52997 31.2162 10.133 33.4111 11.7363 34.5436 13.8951 34.6141 16.6098 34.5744 18.4977 33.9515 20.3794 32.7456 22.2553 31.5397 24.1313 29.9886 26.0132 28.0925 27.9011L22.0935 33.9295 35.3285 33.9295 35.3285 41.6716 9.47157 41.6716 9.47157 35.3154 21.3314 22.9731C22.1609 22.1179 22.8476 21.2566 23.3913 20.3894 23.9351 19.5223 24.217 18.7567 24.2368 18.093 24.2318 17.3255 23.9679 16.7433 23.4449 16.3466 22.922 15.9499 22.1699 15.7507 21.1884 15.7486 19.8578 15.7616 18.3993 16.1423 16.8126 16.8908 15.2258 17.6395 13.6362 18.6779 12.0437 20.0067L8.32849 12.8333C10.5918 11.2173 12.9238 9.95666 15.3241 9.05172 17.7245 8.14662 20.1872 7.68654 22.7126 7.67163Z" stroke="#CE6A85" stroke-miterlimit="8" fill="#CE6A85" fill-rule="evenodd" fill-opacity="0.701961"/></g></g><path d="M319.884 268.5C323.359 268.538 326.193 269.358 328.388 270.961 330.583 272.565 331.715 274.724 331.786 277.438 331.746 279.326 331.123 281.208 329.917 283.084 328.711 284.96 327.16 286.842 325.264 288.729L319.265 294.758 332.5 294.758 332.5 302.5 306.643 302.5 306.643 296.144 318.503 283.802C319.332 282.946 320.019 282.085 320.563 281.218 321.107 280.351 321.389 279.585 321.408 278.921 321.403 278.154 321.139 277.572 320.616 277.175 320.094 276.778 319.341 276.579 318.36 276.577 317.029 276.59 315.571 276.971 313.984 277.719 312.397 278.468 310.808 279.506 309.215 280.835L305.5 273.662C307.763 272.046 310.095 270.785 312.496 269.88 314.896 268.975 317.359 268.515 319.884 268.5Z" stroke="#CE6A85" stroke-width="1.33333" stroke-miterlimit="8" fill="#CE6A85" fill-rule="evenodd" fill-opacity="0.701961"/><g filter="url(#fx3)" transform="translate(301 232)"><g><path d="M28.0056 34.358C25.2037 34.4127 23.0483 35.1951 21.5396 36.7053 20.0309 38.2155 19.2847 40.1261 19.3011 42.4369 19.255 44.5157 19.9179 46.3261 21.2899 47.8682 22.6619 49.4103 24.8053 50.2199 27.7203 50.2972 30.2844 50.2836 32.3089 49.5831 33.7939 48.1957 35.2789 46.8083 36.037 44.8159 36.0682 42.2186 36.0488 39.7576 35.3383 37.8381 33.9366 36.4597 32.5349 35.0814 30.5579 34.3808 28.0056 34.358ZM29.5753 7.67163C32.2746 7.68669 35.0083 8.05612 37.7765 8.7797 40.5447 9.50339 42.9916 10.4904 45.1172 11.741L40.9134 19.9588C39.4289 18.8985 37.7657 18.0884 35.9236 17.5287 34.0816 16.9689 32.2034 16.6868 30.2889 16.6823 26.0436 16.7387 22.8864 18.1185 20.8174 20.8219 18.7483 23.5253 17.7671 27.2139 17.874 31.8875 19.1256 29.9483 20.7964 28.4496 22.8863 27.3915 24.9763 26.3334 27.4676 25.7975 30.3602 25.7839 35.2996 25.8487 39.1822 27.354 42.0079 30.2996 44.8336 33.2454 46.2738 37.2426 46.3285 42.2913 46.256 47.6945 44.6019 51.928 41.3662 54.992 38.1306 58.056 33.7484 59.6158 28.2197 59.6716 21.6696 59.604 16.5649 57.3774 12.9058 52.992 9.24664 48.6066 7.38756 42.4682 7.32849 34.5765 7.40825 26.3276 9.42186 19.8068 13.3692 15.0144 17.3166 10.222 22.7186 7.7743 29.5753 7.67163Z" stroke="#FF8C61" stroke-linejoin="round" stroke-miterlimit="10" fill="#FF8C61" fill-rule="evenodd" fill-opacity="0.701961"/></g></g><path d="M326.177 269.186C323.375 269.241 321.22 270.024 319.711 271.534 318.203 273.044 317.456 274.955 317.473 277.265 317.427 279.344 318.089 281.155 319.461 282.697 320.833 284.239 322.977 285.048 325.892 285.126 328.456 285.112 330.48 284.411 331.965 283.024 333.45 281.637 334.209 279.644 334.24 277.047 334.22 274.586 333.51 272.666 332.108 271.288 330.706 269.91 328.729 269.209 326.177 269.186ZM327.747 242.5C330.446 242.515 333.18 242.885 335.948 243.608 338.716 244.332 341.163 245.319 343.289 246.569L339.085 254.787C337.6 253.727 335.937 252.917 334.095 252.357 332.253 251.797 330.375 251.515 328.46 251.511 324.215 251.567 321.058 252.947 318.989 255.65 316.92 258.354 315.939 262.042 316.046 266.716 317.297 264.777 318.968 263.278 321.058 262.22 323.148 261.162 325.639 260.626 328.532 260.612 333.471 260.677 337.354 262.182 340.18 265.128 343.005 268.074 344.445 272.071 344.5 277.12 344.428 282.523 342.773 286.756 339.538 289.82 336.302 292.884 331.92 294.444 326.391 294.5 319.841 294.432 314.737 292.206 311.077 287.82 307.418 283.435 305.559 277.297 305.5 269.405 305.58 261.156 307.593 254.635 311.541 249.843 315.488 245.05 320.89 242.603 327.747 242.5Z" stroke="#FF8C61" stroke-width="1.33333" stroke-linejoin="round" stroke-miterlimit="10" fill="#FF8C61" fill-rule="evenodd" fill-opacity="0.701961"/></g></svg>