<svg width="78" height="78" xmlns="http://www.w3.org/2000/svg" xmlns:xlink="http://www.w3.org/1999/xlink" overflow="hidden"><defs><filter id="fx0" x="-10%" y="-10%" width="120%" height="120%" filterUnits="userSpaceOnUse" primitiveUnits="userSpaceOnUse"><feComponentTransfer color-interpolation-filters="sRGB"><feFuncR type="discrete" tableValues="0 0"/><feFuncG type="discrete" tableValues="0 0"/><feFuncB type="discrete" tableValues="0 0"/><feFuncA type="linear" slope="0.4" intercept="0"/></feComponentTransfer><feGaussianBlur stdDeviation="1.77778 1.77778"/></filter><filter id="fx1" x="-10%" y="-10%" width="120%" height="120%" filterUnits="userSpaceOnUse" primitiveUnits="userSpaceOnUse"><feComponentTransfer color-interpolation-filters="sRGB"><feFuncR type="discrete" tableValues="0 0"/><feFuncG type="discrete" tableValues="0 0"/><feFuncB type="discrete" tableValues="0 0"/><feFuncA type="linear" slope="0.4" intercept="0"/></feComponentTransfer><feGaussianBlur stdDeviation="1.77778 1.77778"/></filter><filter id="fx2" x="-10%" y="-10%" width="120%" height="120%" filterUnits="userSpaceOnUse" primitiveUnits="userSpaceOnUse"><feComponentTransfer color-interpolation-filters="sRGB"><feFuncR type="discrete" tableValues="0 0"/><feFuncG type="discrete" tableValues="0 0"/><feFuncB type="discrete" tableValues="0 0"/><feFuncA type="linear" slope="0.4" intercept="0"/></feComponentTransfer><feGaussianBlur stdDeviation="1.77778 1.77778"/></filter></defs><g transform="translate(-416 -230)"><g filter="url(#fx0)" transform="translate(441 238)"><g><path d="M28.0056 34.358C25.2037 34.4127 23.0483 35.1951 21.5396 36.7053 20.0309 38.2155 19.2847 40.1261 19.3011 42.4369 19.255 44.5157 19.9179 46.3261 21.2899 47.8682 22.6619 49.4103 24.8053 50.2199 27.7203 50.2972 30.2844 50.2836 32.3089 49.5831 33.7939 48.1957 35.2789 46.8083 36.037 44.8159 36.0682 42.2186 36.0488 39.7576 35.3383 37.8381 33.9366 36.4597 32.5349 35.0814 30.5579 34.3808 28.0056 34.358ZM29.5753 7.67163C32.2746 7.68669 35.0083 8.05612 37.7765 8.7797 40.5447 9.50339 42.9916 10.4904 45.1172 11.741L40.9134 19.9588C39.4289 18.8985 37.7657 18.0884 35.9236 17.5287 34.0816 16.9689 32.2034 16.6868 30.2889 16.6823 26.0436 16.7387 22.8864 18.1185 20.8174 20.8219 18.7483 23.5253 17.7671 27.2139 17.874 31.8875 19.1256 29.9483 20.7964 28.4496 22.8863 27.3915 24.9763 26.3334 27.4676 25.7975 30.3602 25.7839 35.2996 25.8487 39.1822 27.354 42.0079 30.2996 44.8336 33.2454 46.2738 37.2426 46.3285 42.2913 46.256 47.6945 44.6019 51.928 41.3662 54.992 38.1306 58.056 33.7484 59.6158 28.2197 59.6716 21.6696 59.604 16.5649 57.3774 12.9058 52.992 9.24664 48.6066 7.38756 42.4682 7.32849 34.5765 7.40825 26.3276 9.42186 19.8068 13.3692 15.0144 17.3166 10.222 22.7186 7.7743 29.5753 7.67163Z" stroke="#4E598C" stroke-linejoin="round" stroke-miterlimit="10" fill="#4E598C" fill-rule="evenodd" fill-opacity="0.701961"/></g></g><path d="M466.177 275.186C463.375 275.241 461.22 276.024 459.711 277.534 458.203 279.044 457.456 280.955 457.473 283.265 457.427 285.344 458.089 287.155 459.461 288.697 460.833 290.239 462.977 291.048 465.892 291.126 468.456 291.112 470.48 290.411 471.965 289.024 473.45 287.637 474.209 285.644 474.24 283.047 474.22 280.586 473.51 278.666 472.108 277.288 470.706 275.91 468.729 275.209 466.177 275.186ZM467.747 248.5C470.446 248.515 473.18 248.885 475.948 249.608 478.716 250.332 481.163 251.319 483.289 252.569L479.085 260.787C477.6 259.727 475.937 258.917 474.095 258.357 472.253 257.797 470.375 257.515 468.46 257.511 464.215 257.567 461.058 258.947 458.989 261.65 456.92 264.354 455.939 268.042 456.046 272.716 457.297 270.777 458.968 269.278 461.058 268.22 463.148 267.162 465.639 266.626 468.532 266.612 473.471 266.677 477.354 268.182 480.18 271.128 483.005 274.074 484.445 278.071 484.5 283.12 484.428 288.523 482.773 292.756 479.538 295.82 476.302 298.884 471.92 300.444 466.391 300.5 459.841 300.432 454.737 298.206 451.077 293.82 447.418 289.435 445.559 283.297 445.5 275.405 445.58 267.156 447.593 260.635 451.541 255.843 455.488 251.05 460.89 248.603 467.747 248.5Z" stroke="#4E598C" stroke-width="1.33333" stroke-linejoin="round" stroke-miterlimit="10" fill="#4E598C" fill-rule="evenodd" fill-opacity="0.701961"/><g filter="url(#fx1)" transform="translate(429 234)"><g><path d="M28.5358 33.8448C25.662 33.8984 23.4514 34.6658 21.904 36.1469 20.3567 37.6282 19.5913 39.502 19.6081 41.7683 19.5608 43.8071 20.2407 45.5827 21.6479 47.0952 23.0551 48.6076 25.2534 49.4016 28.2432 49.4775 30.873 49.4642 32.9495 48.7771 34.4725 47.4164 35.9956 46.0556 36.7731 44.1016 36.8051 41.5542 36.7852 39.1406 36.0565 37.2579 34.6189 35.9061 33.1812 34.5543 31.1535 33.8672 28.5358 33.8448ZM30.1457 7.67163C32.9143 7.6864 35.7181 8.04873 38.5572 8.75839 41.3964 9.46816 43.9061 10.4362 46.0862 11.6627L41.7745 19.7225C40.252 18.6826 38.5461 17.888 36.6568 17.3391 34.7676 16.7902 32.8412 16.5134 30.8776 16.509 26.5235 16.5643 23.2854 17.9176 21.1633 20.569 19.0411 23.2204 18.0348 26.838 18.1444 31.4219 19.4281 29.5199 21.1417 28.0501 23.2853 27.0123 25.4288 25.9745 27.984 25.4489 30.9508 25.4356 36.0168 25.4991 39.9989 26.9755 42.8971 29.8645 45.7952 32.7536 47.2724 36.6739 47.3285 41.6256 47.2542 46.9248 45.5576 51.0769 42.239 54.082 38.9203 57.0871 34.4259 58.6169 28.7554 58.6716 22.0373 58.6053 16.8018 56.4215 13.0489 52.1205 9.29582 47.8194 7.38907 41.799 7.32849 34.0591 7.41029 25.9688 9.47553 19.5735 13.5241 14.8732 17.5727 10.1729 23.1132 7.77233 30.1457 7.67163Z" stroke="#8E6289" stroke-linejoin="round" stroke-miterlimit="10" fill="#8E6289" fill-rule="evenodd" fill-opacity="0.701961"/></g></g><path d="M454.707 270.673C451.834 270.727 449.623 271.494 448.076 272.975 446.528 274.457 445.763 276.33 445.78 278.597 445.732 280.636 446.412 282.411 447.819 283.924 449.227 285.436 451.425 286.23 454.415 286.306 457.045 286.293 459.121 285.605 460.644 284.245 462.167 282.884 462.945 280.93 462.977 278.383 462.957 275.969 462.228 274.086 460.79 272.735 459.353 271.383 457.325 270.696 454.707 270.673ZM456.317 244.5C459.086 244.515 461.89 244.877 464.729 245.587 467.568 246.297 470.078 247.265 472.258 248.491L467.946 256.551C466.424 255.511 464.718 254.716 462.828 254.168 460.939 253.619 459.013 253.342 457.049 253.337 452.695 253.393 449.457 254.746 447.335 257.397 445.213 260.049 444.206 263.666 444.316 268.25 445.6 266.348 447.313 264.878 449.457 263.841 451.6 262.803 454.156 262.277 457.122 262.264 462.188 262.328 466.171 263.804 469.069 266.693 471.967 269.582 473.444 273.502 473.5 278.454 473.426 283.753 471.729 287.905 468.411 290.91 465.092 293.916 460.597 295.445 454.927 295.5 448.209 295.434 442.973 293.25 439.22 288.949 435.467 284.648 433.561 278.627 433.5 270.888 433.582 262.797 435.647 256.402 439.696 251.702 443.744 247.001 449.285 244.601 456.317 244.5Z" stroke="#8E6289" stroke-width="1.33333" stroke-linejoin="round" stroke-miterlimit="10" fill="#8E6289" fill-rule="evenodd" fill-opacity="0.701961"/><g filter="url(#fx2)" transform="translate(418 230)"><g><path d="M28.0056 33.8448C25.2037 33.8984 23.0483 34.6658 21.5396 36.1469 20.0309 37.6282 19.2847 39.502 19.3011 41.7683 19.255 43.8071 19.9179 45.5827 21.2899 47.0952 22.6619 48.6076 24.8053 49.4016 27.7203 49.4775 30.2844 49.4642 32.3089 48.7771 33.7939 47.4164 35.2789 46.0556 36.037 44.1016 36.0682 41.5542 36.0488 39.1406 35.3383 37.2579 33.9366 35.9061 32.5349 34.5543 30.5579 33.8672 28.0056 33.8448ZM29.5753 7.67163C32.2746 7.6864 35.0083 8.04873 37.7765 8.75839 40.5447 9.46816 42.9916 10.4362 45.1172 11.6627L40.9134 19.7225C39.4289 18.6826 37.7657 17.888 35.9236 17.3391 34.0816 16.7902 32.2034 16.5134 30.2889 16.509 26.0436 16.5643 22.8864 17.9176 20.8174 20.569 18.7483 23.2204 17.7671 26.838 17.874 31.4219 19.1256 29.5199 20.7964 28.0501 22.8863 27.0123 24.9763 25.9745 27.4676 25.4489 30.3602 25.4356 35.2996 25.4991 39.1822 26.9755 42.0079 29.8645 44.8336 32.7536 46.2738 36.6739 46.3285 41.6256 46.256 46.9248 44.6019 51.0769 41.3662 54.082 38.1306 57.0871 33.7484 58.6169 28.2197 58.6716 21.6696 58.6053 16.5649 56.4215 12.9058 52.1205 9.24664 47.8194 7.38756 41.799 7.32849 34.0591 7.40825 25.9688 9.42186 19.5735 13.3692 14.8732 17.3166 10.1729 22.7186 7.77233 29.5753 7.67163Z" stroke="#FF8C61" stroke-linejoin="round" stroke-miterlimit="10" fill="#FF8C61" fill-rule="evenodd" fill-opacity="0.701961"/></g></g><path d="M443.177 266.673C440.375 266.727 438.22 267.494 436.711 268.975 435.203 270.457 434.456 272.33 434.473 274.597 434.427 276.636 435.089 278.411 436.461 279.924 437.833 281.436 439.977 282.23 442.892 282.306 445.456 282.293 447.48 281.605 448.965 280.245 450.45 278.884 451.209 276.93 451.24 274.383 451.22 271.969 450.51 270.086 449.108 268.735 447.706 267.383 445.729 266.696 443.177 266.673ZM444.747 240.5C447.446 240.515 450.18 240.877 452.948 241.587 455.716 242.297 458.163 243.265 460.289 244.491L456.085 252.551C454.6 251.511 452.937 250.716 451.095 250.168 449.253 249.619 447.375 249.342 445.46 249.337 441.215 249.393 438.058 250.746 435.989 253.397 433.92 256.049 432.939 259.666 433.046 264.25 434.297 262.348 435.968 260.878 438.058 259.841 440.148 258.803 442.639 258.277 445.532 258.264 450.471 258.328 454.354 259.804 457.18 262.693 460.005 265.582 461.445 269.502 461.5 274.454 461.428 279.753 459.773 283.905 456.538 286.91 453.302 289.916 448.92 291.445 443.391 291.5 436.841 291.434 431.737 289.25 428.077 284.949 424.418 280.648 422.559 274.627 422.5 266.888 422.58 258.797 424.593 252.402 428.541 247.702 432.488 243.001 437.89 240.601 444.747 240.5Z" stroke="#FF8C61" stroke-width="1.33333" stroke-linejoin="round" stroke-miterlimit="10" fill="#FF8C61" fill-rule="evenodd" fill-opacity="0.701961"/></g></svg>