<svg width="78" height="78" xmlns="http://www.w3.org/2000/svg" xmlns:xlink="http://www.w3.org/1999/xlink" overflow="hidden"><defs><filter id="fx0" x="-10%" y="-10%" width="120%" height="120%" filterUnits="userSpaceOnUse" primitiveUnits="userSpaceOnUse"><feComponentTransfer color-interpolation-filters="sRGB"><feFuncR type="discrete" tableValues="0 0"/><feFuncG type="discrete" tableValues="0 0"/><feFuncB type="discrete" tableValues="0 0"/><feFuncA type="linear" slope="0.4" intercept="0"/></feComponentTransfer><feGaussianBlur stdDeviation="1.77778 1.77778"/></filter><filter id="fx1" x="-10%" y="-10%" width="120%" height="120%" filterUnits="userSpaceOnUse" primitiveUnits="userSpaceOnUse"><feComponentTransfer color-interpolation-filters="sRGB"><feFuncR type="discrete" tableValues="0 0"/><feFuncG type="discrete" tableValues="0 0"/><feFuncB type="discrete" tableValues="0 0"/><feFuncA type="linear" slope="0.4" intercept="0"/></feComponentTransfer><feGaussianBlur stdDeviation="1.77778 1.77778"/></filter><filter id="fx2" x="-10%" y="-10%" width="120%" height="120%" filterUnits="userSpaceOnUse" primitiveUnits="userSpaceOnUse"><feComponentTransfer color-interpolation-filters="sRGB"><feFuncR type="discrete" tableValues="0 0"/><feFuncG type="discrete" tableValues="0 0"/><feFuncB type="discrete" tableValues="0 0"/><feFuncA type="linear" slope="0.4" intercept="0"/></feComponentTransfer><feGaussianBlur stdDeviation="1.77778 1.77778"/></filter><filter id="fx3" x="-10%" y="-10%" width="120%" height="120%" filterUnits="userSpaceOnUse" primitiveUnits="userSpaceOnUse"><feComponentTransfer color-interpolation-filters="sRGB"><feFuncR type="discrete" tableValues="0 0"/><feFuncG type="discrete" tableValues="0 0"/><feFuncB type="discrete" tableValues="0 0"/><feFuncA type="linear" slope="0.4" intercept="0"/></feComponentTransfer><feGaussianBlur stdDeviation="1.77778 1.77778"/></filter><filter id="fx4" x="-10%" y="-10%" width="120%" height="120%" filterUnits="userSpaceOnUse" primitiveUnits="userSpaceOnUse"><feComponentTransfer color-interpolation-filters="sRGB"><feFuncR type="discrete" tableValues="0 0"/><feFuncG type="discrete" tableValues="0 0"/><feFuncB type="discrete" tableValues="0 0"/><feFuncA type="linear" slope="0.4" intercept="0"/></feComponentTransfer><feGaussianBlur stdDeviation="1.77778 1.77778"/></filter><clipPath id="clip5"><rect x="758" y="256" width="78" height="78"/></clipPath></defs><g clip-path="url(#clip5)" transform="translate(-758 -256)"><g filter="url(#fx0)" transform="translate(783 264)"><g><path d="M28.0056 33.8448C25.2037 33.8984 23.0483 34.6658 21.5396 36.1469 20.0309 37.6282 19.2847 39.502 19.3011 41.7683 19.255 43.8071 19.9179 45.5827 21.2899 47.0952 22.6619 48.6076 24.8053 49.4016 27.7203 49.4775 30.2844 49.4642 32.3089 48.7771 33.7939 47.4164 35.2789 46.0556 36.037 44.1016 36.0682 41.5542 36.0488 39.1406 35.3383 37.2579 33.9366 35.9061 32.5349 34.5543 30.5579 33.8672 28.0056 33.8448ZM29.5753 7.67163C32.2746 7.6864 35.0083 8.04873 37.7765 8.75839 40.5447 9.46816 42.9916 10.4362 45.1172 11.6627L40.9134 19.7225C39.4289 18.6826 37.7657 17.888 35.9236 17.3391 34.0816 16.7902 32.2034 16.5134 30.2889 16.509 26.0436 16.5643 22.8864 17.9176 20.8174 20.569 18.7483 23.2204 17.7671 26.838 17.874 31.4219 19.1256 29.5199 20.7964 28.0501 22.8863 27.0123 24.9763 25.9745 27.4676 25.4489 30.3602 25.4356 35.2996 25.4991 39.1822 26.9755 42.0079 29.8645 44.8336 32.7536 46.2738 36.6739 46.3285 41.6256 46.256 46.9248 44.6019 51.0769 41.3662 54.082 38.1306 57.0871 33.7484 58.6169 28.2197 58.6716 21.6696 58.6053 16.5649 56.4215 12.9058 52.1205 9.24664 47.8194 7.38756 41.799 7.32849 34.0591 7.40825 25.9688 9.42186 19.5735 13.3692 14.8732 17.3166 10.1729 22.7186 7.77233 29.5753 7.67163Z" stroke="#4E598C" stroke-linejoin="round" stroke-miterlimit="10" fill="#4E598C" fill-rule="evenodd" fill-opacity="0.701961"/></g></g><path d="M808.177 300.673C805.375 300.727 803.22 301.494 801.711 302.975 800.203 304.457 799.456 306.33 799.473 308.597 799.427 310.636 800.089 312.411 801.461 313.924 802.833 315.436 804.977 316.23 807.892 316.306 810.456 316.293 812.48 315.605 813.965 314.245 815.451 312.884 816.209 310.93 816.24 308.383 816.22 305.969 815.51 304.086 814.108 302.735 812.706 301.383 810.729 300.696 808.177 300.673ZM809.747 274.5C812.446 274.515 815.18 274.877 817.948 275.587 820.716 276.297 823.163 277.265 825.289 278.491L821.085 286.551C819.601 285.511 817.937 284.716 816.095 284.168 814.253 283.619 812.375 283.342 810.46 283.337 806.215 283.393 803.058 284.746 800.989 287.397 798.92 290.049 797.939 293.666 798.046 298.25 799.297 296.348 800.968 294.878 803.058 293.841 805.148 292.803 807.639 292.277 810.532 292.264 815.471 292.328 819.354 293.804 822.18 296.693 825.005 299.582 826.445 303.502 826.5 308.454 826.428 313.753 824.773 317.905 821.538 320.91 818.302 323.916 813.92 325.445 808.391 325.5 801.841 325.434 796.737 323.25 793.077 318.949 789.418 314.648 787.559 308.627 787.5 300.888 787.58 292.797 789.593 286.402 793.541 281.702 797.488 277.001 802.89 274.601 809.747 274.5Z" stroke="#4E598C" stroke-width="1.33333" stroke-linejoin="round" stroke-miterlimit="10" fill="#4E598C" fill-rule="evenodd" fill-opacity="0.701961"/><g filter="url(#fx1)" transform="translate(772 260)"><g><path d="M28.0056 33.8448C25.2037 33.8984 23.0483 34.6658 21.5396 36.1469 20.0309 37.6282 19.2847 39.502 19.3011 41.7683 19.255 43.8071 19.9179 45.5827 21.2899 47.0952 22.6619 48.6076 24.8053 49.4016 27.7203 49.4775 30.2844 49.4642 32.3089 48.7771 33.7939 47.4164 35.2789 46.0556 36.037 44.1016 36.0682 41.5542 36.0488 39.1406 35.3383 37.2579 33.9366 35.9061 32.5349 34.5543 30.5579 33.8672 28.0056 33.8448ZM29.5753 7.67163C32.2746 7.6864 35.0083 8.04873 37.7765 8.75839 40.5447 9.46816 42.9916 10.4362 45.1172 11.6627L40.9134 19.7225C39.4289 18.6826 37.7657 17.888 35.9236 17.3391 34.0816 16.7902 32.2034 16.5134 30.2889 16.509 26.0436 16.5643 22.8864 17.9176 20.8174 20.569 18.7483 23.2204 17.7671 26.838 17.874 31.4219 19.1256 29.5199 20.7964 28.0501 22.8863 27.0123 24.9763 25.9745 27.4676 25.4489 30.3602 25.4356 35.2996 25.4991 39.1822 26.9755 42.0079 29.8645 44.8336 32.7536 46.2738 36.6739 46.3285 41.6256 46.256 46.9248 44.6019 51.0769 41.3662 54.082 38.1306 57.0871 33.7484 58.6169 28.2197 58.6716 21.6696 58.6053 16.5649 56.4215 12.9058 52.1205 9.24664 47.8194 7.38756 41.799 7.32849 34.0591 7.40825 25.9688 9.42186 19.5735 13.3692 14.8732 17.3166 10.1729 22.7186 7.77233 29.5753 7.67163Z" stroke="#8E6289" stroke-linejoin="round" stroke-miterlimit="10" fill="#8E6289" fill-rule="evenodd" fill-opacity="0.701961"/></g></g><path d="M797.177 296.673C794.375 296.727 792.22 297.494 790.711 298.975 789.203 300.457 788.456 302.33 788.473 304.597 788.427 306.636 789.089 308.411 790.461 309.924 791.833 311.436 793.977 312.23 796.892 312.306 799.456 312.293 801.48 311.605 802.965 310.245 804.451 308.884 805.209 306.93 805.24 304.383 805.22 301.969 804.51 300.086 803.108 298.735 801.706 297.383 799.729 296.696 797.177 296.673ZM798.747 270.5C801.446 270.515 804.18 270.877 806.948 271.587 809.716 272.297 812.163 273.265 814.289 274.491L810.085 282.551C808.601 281.511 806.937 280.716 805.095 280.168 803.253 279.619 801.375 279.342 799.46 279.337 795.215 279.393 792.058 280.746 789.989 283.397 787.92 286.049 786.939 289.666 787.046 294.25 788.297 292.348 789.968 290.878 792.058 289.841 794.148 288.803 796.639 288.277 799.532 288.264 804.471 288.328 808.354 289.804 811.18 292.693 814.005 295.582 815.445 299.502 815.5 304.454 815.428 309.753 813.773 313.905 810.538 316.91 807.302 319.916 802.92 321.445 797.391 321.5 790.841 321.434 785.737 319.25 782.077 314.949 778.418 310.648 776.559 304.627 776.5 296.888 776.58 288.797 778.593 282.402 782.541 277.702 786.488 273.001 791.89 270.601 798.747 270.5Z" stroke="#8E6289" stroke-width="1.33333" stroke-linejoin="round" stroke-miterlimit="10" fill="#8E6289" fill-rule="evenodd" fill-opacity="0.701961"/><g filter="url(#fx2)" transform="translate(760 255)"><g><path d="M28.5358 34.358C25.662 34.4127 23.4514 35.1951 21.904 36.7053 20.3567 38.2155 19.5913 40.1261 19.6081 42.4369 19.5608 44.5157 20.2407 46.3261 21.6479 47.8682 23.0551 49.4103 25.2534 50.2199 28.2432 50.2972 30.873 50.2836 32.9495 49.5831 34.4725 48.1957 35.9956 46.8083 36.7731 44.8159 36.8051 42.2186 36.7852 39.7576 36.0565 37.8381 34.6189 36.4597 33.1812 35.0814 31.1535 34.3808 28.5358 34.358ZM30.1457 7.67163C32.9143 7.68669 35.7181 8.05612 38.5572 8.7797 41.3964 9.50339 43.9061 10.4904 46.0862 11.741L41.7745 19.9588C40.252 18.8985 38.5461 18.0884 36.6568 17.5287 34.7676 16.9689 32.8412 16.6868 30.8776 16.6823 26.5235 16.7387 23.2854 18.1185 21.1633 20.8219 19.0411 23.5253 18.0348 27.2139 18.1444 31.8875 19.4281 29.9483 21.1417 28.4496 23.2853 27.3915 25.4288 26.3334 27.984 25.7975 30.9508 25.7839 36.0168 25.8487 39.9989 27.354 42.8971 30.2996 45.7952 33.2454 47.2724 37.2426 47.3285 42.2913 47.2542 47.6945 45.5576 51.928 42.239 54.992 38.9203 58.056 34.4259 59.6158 28.7554 59.6716 22.0373 59.604 16.8018 57.3774 13.0489 52.992 9.29582 48.6066 7.38907 42.4682 7.32849 34.5765 7.41029 26.3276 9.47553 19.8068 13.5241 15.0144 17.5727 10.222 23.1132 7.7743 30.1457 7.67163Z" stroke="#FF8C61" stroke-linejoin="round" stroke-miterlimit="10" fill="#FF8C61" fill-rule="evenodd" fill-opacity="0.701961"/></g></g><path d="M785.707 292.186C782.834 292.241 780.623 293.024 779.076 294.534 777.528 296.044 776.763 297.955 776.78 300.265 776.732 302.344 777.412 304.155 778.819 305.697 780.227 307.239 782.425 308.048 785.415 308.126 788.045 308.112 790.121 307.411 791.644 306.024 793.167 304.637 793.945 302.644 793.977 300.047 793.957 297.586 793.228 295.667 791.79 294.288 790.353 292.91 788.325 292.209 785.707 292.186ZM787.317 265.5C790.086 265.515 792.89 265.885 795.729 266.608 798.568 267.332 801.078 268.319 803.258 269.569L798.946 277.787C797.424 276.727 795.718 275.917 793.828 275.357 791.939 274.797 790.013 274.515 788.049 274.511 783.695 274.567 780.457 275.947 778.335 278.65 776.213 281.354 775.206 285.042 775.316 289.716 776.6 287.777 778.313 286.278 780.457 285.22 782.6 284.162 785.156 283.626 788.122 283.612 793.188 283.677 797.171 285.182 800.069 288.128 802.967 291.074 804.444 295.071 804.5 300.12 804.426 305.523 802.729 309.756 799.411 312.82 796.092 315.884 791.597 317.444 785.927 317.5 779.209 317.432 773.973 315.206 770.22 310.82 766.467 306.435 764.561 300.297 764.5 292.405 764.582 284.156 766.647 277.635 770.696 272.843 774.744 268.05 780.285 265.603 787.317 265.5Z" stroke="#FF8C61" stroke-width="1.33333" stroke-linejoin="round" stroke-miterlimit="10" fill="#FF8C61" fill-rule="evenodd" fill-opacity="0.701961"/><g filter="url(#fx3)" transform="translate(760 264)"><g><path d="M28.5358 33.8448C25.662 33.8984 23.4514 34.6658 21.904 36.1469 20.3567 37.6282 19.5913 39.502 19.6081 41.7683 19.5608 43.8071 20.2407 45.5827 21.6479 47.0952 23.0551 48.6076 25.2534 49.4016 28.2432 49.4775 30.873 49.4642 32.9495 48.7771 34.4725 47.4164 35.9956 46.0556 36.7731 44.1016 36.8051 41.5542 36.7852 39.1406 36.0565 37.2579 34.6189 35.9061 33.1812 34.5543 31.1535 33.8672 28.5358 33.8448ZM30.1457 7.67163C32.9143 7.6864 35.7181 8.04873 38.5572 8.75839 41.3964 9.46816 43.9061 10.4362 46.0862 11.6627L41.7745 19.7225C40.252 18.6826 38.5461 17.888 36.6568 17.3391 34.7676 16.7902 32.8412 16.5134 30.8776 16.509 26.5235 16.5643 23.2854 17.9176 21.1633 20.569 19.0411 23.2204 18.0348 26.838 18.1444 31.4219 19.4281 29.5199 21.1417 28.0501 23.2853 27.0123 25.4288 25.9745 27.984 25.4489 30.9508 25.4356 36.0168 25.4991 39.9989 26.9755 42.8971 29.8645 45.7952 32.7536 47.2724 36.6739 47.3285 41.6256 47.2542 46.9248 45.5576 51.0769 42.239 54.082 38.9203 57.0871 34.4259 58.6169 28.7554 58.6716 22.0373 58.6053 16.8018 56.4215 13.0489 52.1205 9.29582 47.8194 7.38907 41.799 7.32849 34.0591 7.41029 25.9688 9.47553 19.5735 13.5241 14.8732 17.5727 10.1729 23.1132 7.77233 30.1457 7.67163Z" stroke="#4E598C" stroke-linejoin="round" stroke-miterlimit="10" fill="#4E598C" fill-rule="evenodd" fill-opacity="0.701961"/></g></g><path d="M785.707 300.673C782.834 300.727 780.623 301.494 779.076 302.975 777.528 304.457 776.763 306.33 776.78 308.597 776.732 310.636 777.412 312.411 778.819 313.924 780.227 315.436 782.425 316.23 785.415 316.306 788.045 316.293 790.121 315.605 791.644 314.245 793.167 312.884 793.945 310.93 793.977 308.383 793.957 305.969 793.228 304.086 791.79 302.735 790.353 301.383 788.325 300.696 785.707 300.673ZM787.317 274.5C790.086 274.515 792.89 274.877 795.729 275.587 798.568 276.297 801.078 277.265 803.258 278.491L798.946 286.551C797.424 285.511 795.718 284.716 793.828 284.168 791.939 283.619 790.013 283.342 788.049 283.337 783.695 283.393 780.457 284.746 778.335 287.397 776.213 290.049 775.206 293.666 775.316 298.25 776.6 296.348 778.313 294.878 780.457 293.841 782.6 292.803 785.156 292.277 788.122 292.264 793.188 292.328 797.171 293.804 800.069 296.693 802.967 299.582 804.444 303.502 804.5 308.454 804.426 313.753 802.729 317.905 799.411 320.91 796.092 323.916 791.597 325.445 785.927 325.5 779.209 325.434 773.973 323.25 770.22 318.949 766.467 314.648 764.561 308.627 764.5 300.888 764.582 292.797 766.647 286.402 770.696 281.702 774.744 277.001 780.285 274.601 787.317 274.5Z" stroke="#4E598C" stroke-width="1.33333" stroke-linejoin="round" stroke-miterlimit="10" fill="#4E598C" fill-rule="evenodd" fill-opacity="0.701961"/><g filter="url(#fx4)" transform="translate(783 255)"><g><path d="M28.0056 34.358C25.2037 34.4127 23.0483 35.1951 21.5396 36.7053 20.0309 38.2155 19.2847 40.1261 19.3011 42.4369 19.255 44.5157 19.9179 46.3261 21.2899 47.8682 22.6619 49.4103 24.8053 50.2199 27.7203 50.2972 30.2844 50.2836 32.3089 49.5831 33.7939 48.1957 35.2789 46.8083 36.037 44.8159 36.0682 42.2186 36.0488 39.7576 35.3383 37.8381 33.9366 36.4597 32.5349 35.0814 30.5579 34.3808 28.0056 34.358ZM29.5753 7.67163C32.2746 7.68669 35.0083 8.05612 37.7765 8.7797 40.5447 9.50339 42.9916 10.4904 45.1172 11.741L40.9134 19.9588C39.4289 18.8985 37.7657 18.0884 35.9236 17.5287 34.0816 16.9689 32.2034 16.6868 30.2889 16.6823 26.0436 16.7387 22.8864 18.1185 20.8174 20.8219 18.7483 23.5253 17.7671 27.2139 17.874 31.8875 19.1256 29.9483 20.7964 28.4496 22.8863 27.3915 24.9763 26.3334 27.4676 25.7975 30.3602 25.7839 35.2996 25.8487 39.1822 27.354 42.0079 30.2996 44.8336 33.2454 46.2738 37.2426 46.3285 42.2913 46.256 47.6945 44.6019 51.928 41.3662 54.992 38.1306 58.056 33.7484 59.6158 28.2197 59.6716 21.6696 59.604 16.5649 57.3774 12.9058 52.992 9.24664 48.6066 7.38756 42.4682 7.32849 34.5765 7.40825 26.3276 9.42186 19.8068 13.3692 15.0144 17.3166 10.222 22.7186 7.7743 29.5753 7.67163Z" stroke="#8E6289" stroke-linejoin="round" stroke-miterlimit="10" fill="#8E6289" fill-rule="evenodd" fill-opacity="0.701961"/></g></g><path d="M808.177 292.186C805.375 292.241 803.22 293.024 801.711 294.534 800.203 296.044 799.456 297.955 799.473 300.265 799.427 302.344 800.089 304.155 801.461 305.697 802.833 307.239 804.977 308.048 807.892 308.126 810.456 308.112 812.48 307.411 813.965 306.024 815.451 304.637 816.209 302.644 816.24 300.047 816.22 297.586 815.51 295.667 814.108 294.288 812.706 292.91 810.729 292.209 808.177 292.186ZM809.747 265.5C812.446 265.515 815.18 265.885 817.948 266.608 820.716 267.332 823.163 268.319 825.289 269.569L821.085 277.787C819.601 276.727 817.937 275.917 816.095 275.357 814.253 274.797 812.375 274.515 810.46 274.511 806.215 274.567 803.058 275.947 800.989 278.65 798.92 281.354 797.939 285.042 798.046 289.716 799.297 287.777 800.968 286.278 803.058 285.22 805.148 284.162 807.639 283.626 810.532 283.612 815.471 283.677 819.354 285.182 822.18 288.128 825.005 291.074 826.445 295.071 826.5 300.12 826.428 305.523 824.773 309.756 821.538 312.82 818.302 315.884 813.92 317.444 808.391 317.5 801.841 317.432 796.737 315.206 793.077 310.82 789.418 306.435 787.559 300.297 787.5 292.405 787.58 284.156 789.593 277.635 793.541 272.843 797.488 268.05 802.89 265.603 809.747 265.5Z" stroke="#8E6289" stroke-width="1.33333" stroke-linejoin="round" stroke-miterlimit="10" fill="#8E6289" fill-rule="evenodd" fill-opacity="0.701961"/></g></svg>